<svg width="32" height="21" viewBox="0 0 32 21" fill="none" xmlns="http://www.w3.org/2000/svg">
<g clip-path="url(#clip0_2904_250)">
<path d="M23.7026 6.23738L23.086 7.72524H24.3225L23.7026 6.23738ZM16.5873 7.15938C16.7036 7.099 16.772 6.96766 16.772 6.80456C16.772 6.64473 16.7001 6.52898 16.5839 6.47458C16.478 6.41428 16.3152 6.40732 16.159 6.40732H15.0559V7.23632H16.1442C16.3186 7.23636 16.4642 7.23382 16.5873 7.15938ZM2.45197 6.23738L1.84233 7.72524H3.06526L2.45197 6.23738ZM30.8351 15.7691H29.1051V14.9686H30.8281C30.999 14.9686 31.1186 14.9463 31.1907 14.8762C31.2531 14.8185 31.2966 14.7345 31.2966 14.6327C31.2966 14.5239 31.2531 14.4376 31.1871 14.3859C31.1222 14.3289 31.0274 14.3029 30.8714 14.3029C30.0302 14.2745 28.9808 14.3288 28.9808 13.1475C28.9808 12.6061 29.3261 12.0362 30.2662 12.0362H32.0507V11.2934H30.3927C29.8924 11.2934 29.5289 11.4127 29.2715 11.5983V11.2934H26.8191C26.4271 11.2934 25.9667 11.3902 25.749 11.5983V11.2934H21.3697V11.5983C21.0212 11.3479 20.4331 11.2934 20.1618 11.2934H17.2731V11.5983C16.9974 11.3324 16.3842 11.2934 16.0105 11.2934H12.7777L12.038 12.0906L11.345 11.2934H6.51588V16.5025H11.2541L12.0163 15.6925L12.7344 16.5025L15.655 16.505V15.2796H15.9422C16.3297 15.2857 16.7867 15.2701 17.1901 15.0965V16.5024H19.599V15.1446H19.7152C19.8635 15.1446 19.8782 15.1508 19.8782 15.2983V16.5021H27.1964C27.661 16.5021 28.1467 16.3838 28.4156 16.1686V16.5021H30.7369C31.22 16.5021 31.6917 16.4346 32.0507 16.262V15.2916C31.8332 15.6085 31.409 15.7691 30.8351 15.7691ZM15.9803 14.5391H14.8625V15.7912H13.1212L12.0181 14.5555L10.8718 15.7913H7.32318V12.0582H10.9264L12.0285 13.2819L13.168 12.0582H16.0306C16.7415 12.0582 17.5403 12.2542 17.5403 13.288C17.5403 14.325 16.7634 14.5391 15.9803 14.5391ZM21.3556 14.3698C21.4822 14.552 21.5004 14.7221 21.5041 15.0512V15.7913H20.6046V15.3243C20.6046 15.0997 20.6264 14.7671 20.4598 14.5935C20.329 14.4598 20.1294 14.4279 19.8025 14.4279H18.8452V15.7913H17.945V12.0582H20.0132C20.467 12.0582 20.7972 12.0782 21.0912 12.2343C21.3739 12.4044 21.5518 12.6375 21.5518 13.0633C21.5518 13.6591 21.1527 13.9631 20.9169 14.0565C21.1162 14.1297 21.2791 14.2611 21.3556 14.3698ZM25.0563 12.8302H22.9584V13.5088H25.005V14.2705H22.9584V15.0133L25.0563 15.0166V15.7912H22.0663V12.0581H25.0563V12.8302ZM27.3583 15.7912H25.6135V14.9907H27.3513C27.5213 14.9907 27.6418 14.9683 27.7173 14.8982C27.7788 14.8405 27.8231 14.7565 27.8231 14.6549C27.8231 14.546 27.7752 14.4596 27.7138 14.4078C27.6453 14.3509 27.5507 14.3251 27.3948 14.3251C26.557 14.2965 25.5078 14.3508 25.5078 13.1696C25.5078 12.6281 25.8495 12.0582 26.7886 12.0582H28.5847V12.8526H26.9412C26.7783 12.8526 26.6724 12.8588 26.5824 12.9202C26.4842 12.9807 26.4478 13.0703 26.4478 13.1887C26.4478 13.3295 26.5311 13.4254 26.6437 13.4668C26.7383 13.4995 26.8398 13.5091 26.9924 13.5091L27.4747 13.5221C27.9609 13.5338 28.2948 13.6177 28.4977 13.8223C28.6721 14.002 28.7657 14.229 28.7657 14.6132C28.7656 15.4163 28.2618 15.7912 27.3583 15.7912ZM20.4103 12.8904C20.3021 12.8264 20.1423 12.823 19.9829 12.823H18.8797V13.6614H19.9681C20.1424 13.6614 20.2906 13.6553 20.4103 13.5844C20.5264 13.5145 20.5959 13.3858 20.5959 13.2261C20.5959 13.0665 20.5264 12.9509 20.4103 12.8904ZM30.4198 12.8229C30.2568 12.8229 30.1485 12.8291 30.0573 12.8903C29.9627 12.9509 29.9265 13.0405 29.9265 13.159C29.9265 13.2997 30.0062 13.3956 30.1223 13.437C30.2169 13.4698 30.3183 13.4793 30.4675 13.4793L30.9531 13.4922C31.443 13.5043 31.7702 13.5883 31.9696 13.7928C32.0059 13.8212 32.0277 13.8531 32.0527 13.8852V12.823H30.4199L30.4198 12.8229ZM16.0115 12.8229H14.8434V13.7737H16.0012C16.3453 13.7737 16.5594 13.6036 16.5595 13.2807C16.5594 12.9542 16.3349 12.8229 16.0115 12.8229ZM8.21545 12.8229V13.5016H10.1821V14.2633H8.21545V15.006H10.418L11.4414 13.9108L10.4615 12.8229H8.21545ZM13.967 15.4335V12.4406L12.5916 13.9129L13.967 15.4335ZM8.29091 9.4398V10.083H15.7755L15.7721 8.72227H15.9169C16.0184 8.72579 16.0479 8.73509 16.0479 8.90184V10.0831H19.9189V9.76626C20.2312 9.93288 20.7168 10.0831 21.3558 10.0831H22.9844L23.3329 9.25411H24.1056L24.4464 10.0831H27.5847V9.29564L28.0598 10.083H30.5748V4.87781H28.086V5.49254L27.7375 4.87781H25.1836V5.49254L24.8636 4.87781H21.4139C20.8364 4.87781 20.329 4.95806 19.9189 5.18176V4.87781H17.5383V5.18176C17.2774 4.95118 16.9218 4.87781 16.5266 4.87781H7.82955L7.24603 6.22227L6.6467 4.87781H3.90738V5.49254L3.60641 4.87781H1.27023L0.185345 7.35271V9.33237L1.78955 5.60014H3.12059L4.64416 9.13377V5.60014H6.10637L7.27876 8.13199L8.35583 5.60014H9.84738V9.33237H8.92913L8.92577 6.40936L7.6267 9.33237H6.84012L5.53774 6.40677V9.33237H3.71554L3.37133 8.49989H1.50602L1.15825 9.33237H0.185303V10.0832H1.71605L2.06118 9.2542H2.83392L3.17813 10.0832H6.1898V9.44936L6.45859 10.0858H8.02203L8.29091 9.4398ZM20.085 6.0353C20.3746 5.73743 20.8281 5.60006 21.4455 5.60006H22.3128V6.39976H21.4637C21.1369 6.39976 20.9521 6.44817 20.7744 6.62091C20.6216 6.77802 20.5168 7.07509 20.5168 7.46626C20.5168 7.86613 20.5967 8.15441 20.7631 8.34273C20.9011 8.49042 21.1518 8.53522 21.3876 8.53522H21.79L23.0526 5.60019H24.3949L25.9116 9.13029V5.60023H27.2756L28.8504 8.19951V5.60023H29.7681V9.33233H28.4985L26.8005 6.53114V9.33233H24.9759L24.6273 8.49985H22.7663L22.4281 9.33233H21.3797C20.9443 9.33233 20.393 9.23645 20.0808 8.91951C19.7659 8.60265 19.6022 8.17339 19.6022 7.49475C19.602 6.94116 19.6998 6.43518 20.085 6.0353ZM18.2424 5.6001H19.1564V9.33233H18.2424V5.6001ZM14.1211 5.6001H16.1817C16.6394 5.6001 16.9769 5.6122 17.2665 5.77887C17.5498 5.94558 17.7198 6.18898 17.7198 6.6052C17.7198 7.20031 17.3209 7.5077 17.0886 7.60006C17.2845 7.67437 17.4521 7.80562 17.5318 7.91433C17.6583 8.09997 17.6801 8.26579 17.6801 8.59908V9.33229H16.7766L16.7732 8.86163C16.7732 8.637 16.7947 8.31403 16.6318 8.13458C16.5009 8.00337 16.3013 7.97479 15.9787 7.97479H15.0171V9.33233H14.1212L14.1211 5.6001ZM10.5097 5.6001H13.5025V6.3773H11.4057V7.05004H13.4521V7.81509H11.4057V8.56044H13.5025V9.33229H10.5097V5.6001Z" fill="#2557D6"/>
</g>
<defs>
<clipPath id="clip0_2904_250">
<rect width="31.8471" height="20" fill="white" transform="translate(0.152832 0.691406)"/>
</clipPath>
</defs>
</svg>
