<svg width="60" height="19" viewBox="0 0 60 19" fill="none" xmlns="http://www.w3.org/2000/svg">
<g clip-path="url(#clip0_2705_274)">
<path d="M0 0.994141H2.61072C5.53569 0.994141 8.11851 2.78296 8.11851 9.66327C8.11851 16.5469 5.53569 18.3357 2.61072 18.3357H0V0.994141Z" fill="#FEFBFB"/>
<path d="M1.91333 15.6028H2.97881C4.57797 15.6028 6.12134 13.4397 6.12134 9.66327C6.12134 5.88688 4.57797 3.72705 2.97881 3.72705H1.91333V15.6028V15.6028Z" fill="#42D3FF"/>
<path d="M8.88281 0.994059H10.7962V18.3356H8.88281V0.994059ZM16.9641 5.5721C16.3059 4.84001 15.5974 4.06486 14.848 3.89592C14.1619 3.74022 13.4311 4.10792 13.4311 5.84042C13.4311 8.84829 17.6131 7.57955 17.6131 13.3932C17.6131 17.1928 15.947 19.018 14.0317 18.6371C12.9941 18.4284 12.3935 17.8686 11.566 16.8748V13.3568C12.2224 14.0027 13.1838 15.1986 13.9239 15.4371C14.7365 15.6955 15.6179 15.2317 15.6179 13.6648C15.6179 10.3588 11.4359 11.727 11.4359 5.98949C11.4359 2.11373 13.0908 0.695923 14.7699 0.695923C15.59 0.695923 16.3245 1.25576 16.9641 2.24954V5.5721ZM30.6834 0.695923C33.6772 0.695923 35.6185 4.37293 35.6185 9.61681C35.6185 14.8574 33.7032 18.6371 30.6834 18.6371C27.6227 18.6371 25.6609 14.9336 25.6609 9.61681C25.6609 4.29674 27.6506 0.695923 30.6834 0.695923ZM34.9732 0.994059H37.0224L39.1478 10.1568L41.1319 0.994059H43.1178L39.3821 18.3356H38.6885L34.9732 0.994059ZM43.6161 0.994059H49.2467V3.72697H45.5295V8.00025H48.9324V10.7332H45.5295V15.6027H49.2745V18.3356H43.6161V0.994059ZM49.784 0.994059H51.8481C53.8991 0.994059 56.3443 0.868179 56.3443 5.68804C56.3443 7.72531 55.5931 9.41474 54.3751 9.71288V9.76257C54.8939 9.83545 55.1951 10.7829 55.3867 11.5514L56.917 18.3323H54.7861L53.6388 12.9195C53.3654 11.6276 53.12 11.1307 52.3129 11.1307H51.6975V18.3356H49.784V0.994059Z" fill="#FEFBFB"/>
<path d="M51.6975 8.39786H52.326C53.2688 8.39786 54.3491 8.14942 54.3491 5.98628C54.3491 3.89932 53.2836 3.72375 52.326 3.72375H51.6975V8.39786Z" fill="#42D3FF"/>
<path d="M25.1773 16.6032C24.7125 17.6765 23.5521 18.3357 22.7693 18.4351C19.8034 18.8061 17.8101 15.8413 17.8101 9.97796C17.8101 4.04174 19.5468 0.599927 22.7823 0.86825C23.4108 0.921252 24.4391 1.29889 25.1346 2.31255V5.6583C24.3238 4.75727 23.4833 4.11793 22.7712 4.06493C20.8038 3.92249 19.8053 6.17838 19.8053 9.72951C19.8053 13.2575 20.7369 15.2417 22.773 15.1059C23.554 15.0529 24.7534 13.91 25.1755 13.2806V16.6032H25.1773Z" fill="#FEFBFB"/>
<path d="M59.1614 3.91254C59.6245 3.91254 60 3.24366 60 2.41855C60 1.59344 59.6245 0.924561 59.1614 0.924561C58.6982 0.924561 58.3228 1.59344 58.3228 2.41855C58.3228 3.24366 58.6982 3.91254 59.1614 3.91254Z" fill="#FEFBFB"/>
<path d="M59.7955 2.41856C59.7955 1.7196 59.5129 1.21277 59.1614 1.21277C58.81 1.21277 58.5273 1.71629 58.5273 2.41856C58.5273 3.11753 58.81 3.62104 59.1614 3.62104C59.511 3.62104 59.7955 3.11421 59.7955 2.41856Z" fill="#42D3FF"/>
<path d="M58.8378 1.56384H59.1911C59.4198 1.56384 59.5407 1.70297 59.5407 2.06074C59.5407 2.34893 59.4477 2.49138 59.2934 2.51457L59.5481 3.25659H59.3677L59.1204 2.52782H59.0126V3.25659H58.8359V1.56384H58.8378Z" fill="#FEFBFB"/>
<path d="M59.0144 2.28931H59.1706C59.2747 2.28931 59.3658 2.26281 59.3658 2.03755C59.3658 1.83548 59.2636 1.80566 59.1725 1.80566H59.0144V2.28931Z" fill="#42D3FF"/>
</g>
<defs>
<clipPath id="clip0_2705_274">
<rect width="60" height="18" fill="white" transform="translate(0 0.691406)"/>
</clipPath>
</defs>
</svg>